<svg xmlns="http://www.w3.org/2000/svg" xmlns:xlink="http://www.w3.org/1999/xlink" id="Bookmark" width="1.1em" height="1.1em" version="1.1" viewBox="0 0 32 32" xml:space="preserve" style="enable-background:new 0 0 32 32"><style type="text/css">.st0{fill:#393b3d}.st1{fill:#f25949}</style><g><path d="M6.1,2H3C2.45,2,2,2.45,2,3s0.45,1,1,1h3.1V2z" class="st0"/><path d="M29,2h-2.9v2H29c0.55,0,1-0.45,1-1S29.55,2,29,2z" class="st0"/><path d="M26.1,2h-20v2v25c0,0.38,0.21,0.72,0.54,0.89c0.34,0.17,0.74,0.14,1.04-0.08l8.42-6.08l8.41,6.08 c0.189,0.137,0.893,0.154,1.04,0.08c0.34-0.17,0.55-0.51,0.55-0.89V4V2z" class="st1"/></g></svg>