<?xml version="1.0" ?><!DOCTYPE svg  PUBLIC '-//W3C//DTD SVG 1.1//EN'  'http://www.w3.org/Graphics/SVG/1.1/DTD/svg11.dtd'><svg enable-background="new 0 0 48 48" height="1.2em" id="_x3C_Layer_x3E_" version="1.1" viewBox="0 0 48 48" width="1.2em" xml:space="preserve" xmlns="http://www.w3.org/2000/svg" xmlns:xlink="http://www.w3.org/1999/xlink"><g id="Homepage"><g><path d="M39.5,17.5l-5-1l-1-3.786V6c0-0.276,0.224-0.5,0.5-0.5h5c0.275,0,0.5,0.224,0.5,0.5V17.5z" fill="#8C9EFF"/><path d="M34.5,10.584c-0.276,0-0.5-0.224-0.5-0.5V6h4c0.276,0,0.5,0.224,0.5,0.5S38.276,7,38,7h-3v3.084    C35,10.36,34.776,10.584,34.5,10.584z" fill="#E8EAF6"/><path d="M39.5,15.5c-0.276,0-0.5-0.224-0.5-0.5V6h-5v4c0,0.276-0.224,0.5-0.5,0.5S33,10.276,33,10V6    c0-0.551,0.448-1,1-1h5c0.552,0,1,0.449,1,1v9C40,15.276,39.776,15.5,39.5,15.5z" fill="#0277BD"/></g><g><g><path d="M44.824,22.194L24.646,5.04c-0.367-0.312-0.903-0.313-1.271,0L3.177,22.177     c-0.209,0.178-0.236,0.493-0.061,0.704l1.589,1.915c0.175,0.212,0.487,0.239,0.696,0.062L23.327,9.648     c0.367-0.312,0.903-0.313,1.271-0.001l18.001,15.229c0.209,0.178,0.521,0.149,0.695-0.062l1.591-1.916     C45.06,22.687,45.032,22.372,44.824,22.194z" fill="#8C9EFF"/><path d="M42.914,25.493c-0.234,0-0.458-0.083-0.64-0.236l-18-15.228c-0.179-0.153-0.441-0.154-0.624,0     L5.725,25.239c-0.203,0.173-0.455,0.257-0.729,0.232c-0.266-0.023-0.507-0.15-0.677-0.356L2.731,23.2     c-0.35-0.419-0.296-1.05,0.121-1.404L23.051,4.659c0.555-0.472,1.363-0.472,1.918,0l20.18,17.155c0,0,0,0,0.001,0     c0.413,0.354,0.468,0.982,0.121,1.403l-1.592,1.917c-0.171,0.206-0.411,0.332-0.677,0.355     C42.973,25.492,42.943,25.493,42.914,25.493z M23.964,8.913c0.34,0,0.68,0.118,0.957,0.353l18.001,15.228l1.902-2.3L44.5,22.575     L24.321,5.421c-0.18-0.152-0.442-0.155-0.624,0L3.5,22.558l1.59,1.918L23.004,9.267C23.282,9.031,23.623,8.913,23.964,8.913z" fill="#0277BD"/></g><path d="M4.829,22.58c-0.142,0-0.282-0.06-0.381-0.176c-0.179-0.211-0.153-0.526,0.058-0.705L22.741,6.226    c0.211-0.177,0.526-0.152,0.704,0.058c0.179,0.211,0.153,0.526-0.058,0.705L5.152,22.461C5.059,22.541,4.943,22.58,4.829,22.58z" fill="#E8EAF6"/></g><g><g><path d="M24.5,44.5H40c0.275,0,0.5-0.224,0.5-0.5V26.353L24.644,13.04c-0.372-0.313-0.915-0.312-1.287,0.001     L7.5,26.376V44c0,0.276,0.224,0.5,0.5,0.5h3.53H24.5z" fill="#8C9EFF"/><path d="M40,45H24.5c-0.276,0-0.5-0.224-0.5-0.5s0.224-0.5,0.5-0.5H40V26.585L24.322,13.423     c-0.186-0.156-0.457-0.156-0.645,0.001L8,26.609V44h3.53c0.276,0,0.5,0.224,0.5,0.5s-0.224,0.5-0.5,0.5H8c-0.552,0-1-0.449-1-1     V26.376c0-0.147,0.065-0.288,0.178-0.383l15.856-13.335c0.561-0.471,1.372-0.47,1.931-0.001L40.821,25.97     C40.935,26.064,41,26.205,41,26.353V44C41,44.551,40.552,45,40,45z" fill="#0277BD"/></g><path d="M8.5,43C8.224,43,8,42.776,8,42.5V26.609l14.732-12.39c0.211-0.176,0.528-0.151,0.705,0.061    c0.178,0.211,0.15,0.527-0.061,0.705L9,27.075V42.5C9,42.776,8.776,43,8.5,43z" fill="#E8EAF6"/></g><g><circle cx="24" cy="19" fill="#FFFFFF" r="1.5"/><path d="M24,21c-1.103,0-2-0.897-2-2s0.897-2,2-2s2,0.897,2,2S25.103,21,24,21z M24,18c-0.552,0-1,0.449-1,1    s0.448,1,1,1s1-0.449,1-1S24.552,18,24,18z" fill="#0277BD"/></g><g><path d="M26.5,30.5H35c0.275,0,0.5,0.224,0.5,0.5v7c0,0.276-0.225,0.5-0.5,0.5h-8c-0.276,0-0.5-0.224-0.5-0.5v-5.5    V30.5z" fill="#B3E5FC"/><path d="M35,39h-8c-0.552,0-1-0.449-1-1v-5.5c0-0.276,0.224-0.5,0.5-0.5s0.5,0.224,0.5,0.5V38h8v-7h-8.5    c-0.276,0-0.5-0.224-0.5-0.5s0.224-0.5,0.5-0.5H35c0.552,0,1,0.449,1,1v7C36,38.551,35.552,39,35,39z" fill="#0277BD"/></g><path d="M35,38h-8v-5.5c0-0.276,0.224-0.5,0.5-0.5s0.5,0.224,0.5,0.5V37h6v-5h-4.5c-0.276,0-0.5-0.224-0.5-0.5   s0.224-0.5,0.5-0.5H35V38z" fill="#E1F5FE"/><path d="M22.5,44.5h-9V31c0-0.276,0.224-0.5,0.5-0.5h8c0.275,0,0.5,0.224,0.5,0.5V44.5z" fill="#FFE57F"/><path d="M22.5,45c-0.276,0-0.5-0.224-0.5-0.5V31h-8v13.5c0,0.276-0.224,0.5-0.5,0.5S13,44.776,13,44.5V31   c0-0.551,0.448-1,1-1h8c0.552,0,1,0.449,1,1v13.5C23,44.776,22.776,45,22.5,45z" fill="#0277BD"/><path d="M21.5,45c-0.276,0-0.5-0.224-0.5-0.5V32h-6v12.5c0,0.276-0.224,0.5-0.5,0.5S14,44.776,14,44.5V31h8v13.5   C22,44.776,21.776,45,21.5,45z" fill="#FFF8E1"/><path d="M20.5,38c-0.276,0-0.5-0.224-0.5-0.5v-1c0-0.276,0.224-0.5,0.5-0.5s0.5,0.224,0.5,0.5v1   C21,37.776,20.776,38,20.5,38z" fill="#0277BD"/><path d="M21.5,44h-7c-0.276,0-0.5-0.224-0.5-0.5s0.224-0.5,0.5-0.5h7c0.276,0,0.5,0.224,0.5,0.5S21.776,44,21.5,44z   " fill="#FFF8E1"/><path d="M22.5,45h-9c-0.276,0-0.5-0.224-0.5-0.5s0.224-0.5,0.5-0.5h9c0.276,0,0.5,0.224,0.5,0.5S22.776,45,22.5,45z   " fill="#0277BD"/></g></svg>