<?xml version="1.0" ?><!DOCTYPE svg  PUBLIC '-//W3C//DTD SVG 1.1//EN'  'http://www.w3.org/Graphics/SVG/1.1/DTD/svg11.dtd'><svg enable-background="new 0 0 128 128" id="Слой_1" version="1.1" viewBox="0 0 128 128" xml:space="preserve" xmlns="http://www.w3.org/2000/svg" xmlns:xlink="http://www.w3.org/1999/xlink" width="1.1em" height="1.1em"><g><g><path d="M93.4,124H34.6c-4.8,0-8.1-4.8-6.5-9.3l8.7-23.4c1-2.7,3.6-4.5,6.5-4.5h41.4c2.9,0,5.5,1.8,6.5,4.5    l8.7,23.4C101.5,119.2,98.2,124,93.4,124z" fill="#EFEFEF"/></g><g><path d="M93.4,125.2H34.6c-2.7,0-5.2-1.3-6.7-3.5c-1.5-2.2-1.9-5-1-7.5l8.7-23.4c1.2-3.2,4.2-5.3,7.6-5.3h41.4    c3.4,0,6.5,2.1,7.6,5.3l8.7,23.4c0.9,2.5,0.6,5.3-1,7.5C98.5,123.9,96,125.2,93.4,125.2z M43.3,88c-2.3,0-4.5,1.5-5.3,3.7    l-8.7,23.4c-0.7,1.8-0.4,3.6,0.7,5.2c1.1,1.5,2.8,2.4,4.6,2.4h58.8c1.9,0,3.6-0.9,4.6-2.4c1.1-1.5,1.3-3.4,0.7-5.2L90,91.7    C89.2,89.5,87,88,84.7,88H43.3z" fill="#62355C"/></g><g><ellipse cx="70.9" cy="102.5" fill="#593055" opacity="0.2" rx="13.8" ry="6.9"/><g><g><path d="M103.3,43.3C103.3,21.6,85.7,4,64,4S24.7,21.6,24.7,43.3c0,0.7,0,1.4,0.1,2c1.1,22.1,19,48.3,36.7,59.2      c0.8,0.5,1.7,0.7,2.6,0.7l0,0c0.9,0,1.8-0.2,2.5-0.7c17.6-10.9,35.6-37.2,36.6-59.2C103.3,44.6,103.3,44,103.3,43.3z" fill="#C27DB5"/></g><path d="M64,4c-1.2,0-2.3,0.1-3.4,0.2c20.1,1.7,35.8,18.6,35.8,39.1c0,0.7,0,1.4-0.1,2     C95.3,67,77.9,92.8,60.6,104c0.3,0.2,0.6,0.4,0.9,0.6c0.8,0.5,1.7,0.7,2.6,0.7c0.9,0,1.8-0.2,2.5-0.7     c17.6-10.9,35.6-37.2,36.6-59.2c0-0.7,0.1-1.4,0.1-2C103.3,21.6,85.7,4,64,4z" fill="#593055" opacity="0.2"/><g><path d="M64,106.5c-1.2,0-2.3-0.3-3.2-0.9c-17-10.5-36.1-36.5-37.2-60.2c0-0.7-0.1-1.4-0.1-2.1      C23.5,20.9,41.7,2.8,64,2.8s40.5,18.2,40.5,40.5c0,0.7,0,1.4-0.1,2.1c-1.1,23.7-20.2,49.7-37.2,60.2      C66.3,106.2,65.2,106.5,64,106.5C64.1,106.5,64,106.5,64,106.5z M64,5.2c-21,0-38,17.1-38,38c0,0.7,0,1.3,0.1,2      c1.1,22.2,19.5,48,36.1,58.2c0.6,0.3,1.2,0.5,1.9,0.5v1.2l0-1.3c0.7,0,1.3-0.2,1.9-0.5c16.5-10.2,35-36.1,36.1-58.2      c0-0.7,0.1-1.3,0.1-2C102,22.3,85,5.2,64,5.2z" fill="#62355C"/></g><g><circle cx="64" cy="43.3" fill="#FFFFFF" r="31"/></g><g><path d="M82.9,35.1H45.1c-0.6,0-1.1,0.5-1.1,1.1v3.1c0,0.6,0.5,1.1,1.1,1.1l1.6,0.1l2.3,17      c0.2,1.3,1.3,2.3,2.6,2.3h24.8c1.3,0,2.4-1,2.6-2.3l2.3-17l1.6-0.1c0.6,0,1.1-0.5,1.1-1.1v-3.1C84,35.6,83.5,35.1,82.9,35.1z" fill="#65C5B4"/></g><g><path d="M85,35.3c-0.3-0.8-1.2-1.4-2.1-1.4h0H45.1h0c-1,0-1.8,0.6-2.1,1.4c-0.1,0.3-0.2,0.6-0.2,0.9v3.1      c0,1.3,1,2.3,2.2,2.3c0,0,0,0,0,0l0.6,0l2.2,16c0.2,1.9,1.9,3.4,3.8,3.4h24.8c2,0,3.6-1.5,3.8-3.4l2.2-16l0.5,0h0      c1,0,1.8-0.6,2.1-1.4c0.1-0.3,0.2-0.6,0.2-0.9v-3.1C85.2,35.9,85.2,35.6,85,35.3z M45.3,36.4h37.4v2.7H45.3V36.4z M77.8,57.3      c-0.1,0.7-0.7,1.2-1.4,1.2H51.6c-0.7,0-1.3-0.5-1.4-1.2l-2.1-15.7h31.8L77.8,57.3z" fill="#62355C"/><g><path d="M54,38.4c-0.2,0-0.4,0-0.6-0.1c-0.6-0.3-0.9-1.1-0.6-1.7l5.9-11.9c0.3-0.6,1.1-0.9,1.7-0.6       c0.6,0.3,0.9,1.1,0.6,1.7l-5.9,11.9C54.9,38.2,54.5,38.4,54,38.4z" fill="#62355C"/></g><g><path d="M74,38.4c-0.5,0-0.9-0.3-1.1-0.7l-6-11.9c-0.3-0.6-0.1-1.4,0.6-1.7c0.6-0.3,1.4-0.1,1.7,0.6l6,11.9       c0.3,0.6,0.1,1.4-0.6,1.7C74.4,38.4,74.2,38.4,74,38.4z" fill="#62355C"/></g></g><g><path d="M64,75.5c-17.8,0-32.3-14.5-32.3-32.3S46.2,11,64,11s32.3,14.5,32.3,32.3S81.8,75.5,64,75.5z M64,13.5      c-16.4,0-29.8,13.4-29.8,29.8S47.6,73,64,73s29.8-13.4,29.8-29.8S80.4,13.5,64,13.5z" fill="#62355C"/></g></g></g></g></svg>