<?xml version="1.0" ?><!DOCTYPE svg  PUBLIC '-//W3C//DTD SVG 1.1//EN'  'http://www.w3.org/Graphics/SVG/1.1/DTD/svg11.dtd'><svg enable-background="new 0 0 512 512" id="Layer_1" version="1.1" viewBox="0 0 512 512" xml:space="preserve" xmlns="http://www.w3.org/2000/svg" xmlns:xlink="http://www.w3.org/1999/xlink" width="1.9em" height="1.9em"><g><path d="M48.8,257.1c0-40.3,0.1-80.7-0.1-121c0-3.8,1.2-5.9,4.5-7.9c66-40.1,132-80.2,197.9-120.5c4.3-2.7,7.2-2.6,11.5,0.1   c66,40.4,132.2,80.6,198.3,120.8c3,1.8,3.9,3.8,3.9,7.2c-0.1,81.2-0.1,162.3,0,243.5c0,3.5-1.2,5.3-4.1,7   c-66.9,40.6-133.7,81.3-200.5,122.1c-2.7,1.6-4.5,1.5-7.1-0.1c-66.9-40.8-133.9-81.6-200.9-122.3c-2.9-1.8-3.5-3.8-3.5-6.9   C48.9,338.4,48.8,297.7,48.8,257.1z M451.8,257.3c0-37.5-0.1-75,0.1-112.5c0-4.8-1.4-7.3-5.5-9.8C384.7,97.5,323,60,261.3,22.3   c-3.2-2-5.5-2.1-8.9-0.1C190.4,60.2,128.2,98,66,135.7c-3.4,2-4.3,4.2-4.3,7.9c0.1,75.8,0.1,151.7,0,227.5c0,3.8,1.1,5.9,4.4,7.9   c61.9,37.6,123.8,75.2,185.5,113c4,2.5,6.8,2.1,10.6-0.2c61.5-37.6,123.1-75.1,184.7-112.5c3.6-2.2,5-4.3,5-8.6   C451.8,332.9,451.8,295.1,451.8,257.3z"/><path d="M286.7,307.2c8,12.7,9.7,26,9.4,39.9c-0.3,18.2-0.1,36.3-0.1,54.5c0,1.8,0,3.6,0,5.9c-1.8,0.2-3.2,0.4-4.7,0.4   c-23.5,0-47-0.1-70.5,0.1c-3.9,0-5.2-1.1-5.1-5.1c0.2-11.5,0.1-22.9,0.1-34.9c-3.8,0.5-7.1,0.9-10.3,1.3   c-28.6,3.4-48.9-8.3-61.5-34c-4.5-9.2-11-17.4-17-25.8c-1.8-2.6-5.2-4-7.7-6.2c-1.1-1-1.6-2.7-2.3-4.1c1.5-0.6,2.9-1.7,4.4-1.8   c14-0.9,24.1,5.7,32.1,16.6c4.7,6.4,9.3,13.2,15.3,18.1c13,10.7,28.2,11.6,43.9,6.6c1.2-0.4,2.8-2.1,2.9-3.3   c0.9-9.9,2.8-19.4,8.6-26.8c-11.3-3.5-22.7-5.9-33.3-10.5c-30-13-44.8-36.6-45.5-69c-0.4-15.7,0.2-31.3,4.5-46.6   c2.5-8.8,6.4-16.7,13-23.3c1.2-1.2,1.5-4.3,0.9-6c-4.7-13.8-4.1-27.5-0.3-41.3c1.3-4.8,3.6-5.4,7.9-4c12.3,4,21.1,12.3,29,22   c1.6,1.9,3,3.9,4.8,6.2c15.7-9.1,33-9.3,50.4-9.3c17.2,0,34.4,0,50,9.1c4.6-5.2,9-10.5,13.9-15.5c5.8-5.9,12.7-10.1,20.7-12.7   c4-1.3,6.3-0.9,7.8,3.7c4.4,13.8,5.2,27.5-0.3,41.1c-1.3,3.3-0.8,5.2,1.7,7.8c7.4,7.6,11.9,17,13.5,27.4c3,19.5,4.9,39,1,58.6   c-4.2,21.1-16.2,36.6-34.5,47.3C316.7,301.4,302.6,305.8,286.7,307.2z"/></g></svg>